<svg width="303" height="311" viewBox="0 0 303 311" fill="none" xmlns="http://www.w3.org/2000/svg">
<g clip-path="url(#clip0_2004_905)">
<path d="M181.096 83.0133C143.396 75.1101 113.929 45.6435 106.027 7.94326C105.057 3.31531 100.975 0 96.2448 0C91.5148 0 87.4329 3.31531 86.4629 7.94386C78.5603 45.6435 49.0937 75.1095 11.3941 83.0115C6.7655 83.9815 3.44958 88.064 3.44958 92.7934C3.44958 97.5228 6.76489 101.605 11.3941 102.575C49.0931 110.478 78.5585 139.945 86.4611 177.644C87.4311 182.273 91.513 185.589 96.243 185.589C100.972 185.589 105.055 182.273 106.025 177.644C113.928 139.945 143.395 110.479 181.095 102.577C185.724 101.607 189.039 97.5252 189.039 92.7952C189.039 88.0658 185.724 83.9834 181.096 83.0133Z" fill="white" fill-opacity="0.08"/>
<path d="M164.574 248.122C146.811 244.399 132.928 230.516 129.204 212.753C128.234 208.124 124.152 204.808 119.422 204.808C114.693 204.808 110.61 208.123 109.64 212.752C105.916 230.515 92.0323 244.398 74.27 248.122C69.6415 249.092 66.3256 253.174 66.3256 257.903C66.3256 262.633 69.6409 266.715 74.27 267.685C92.0317 271.409 105.915 285.293 109.639 303.056C110.609 307.684 114.691 311 119.421 311C124.15 311 128.233 307.685 129.203 303.056C132.927 285.293 146.811 271.409 164.574 267.686C169.202 266.716 172.518 262.633 172.518 257.904C172.518 253.175 169.203 249.093 164.574 248.122Z" fill="white" fill-opacity="0.08"/>
<path d="M299.607 155.582C275.598 150.549 256.833 131.783 251.8 107.775C250.83 103.146 246.748 99.8304 242.018 99.8304C237.289 99.8304 233.206 103.145 232.236 107.774C227.203 131.783 208.438 150.548 184.429 155.581C179.801 156.551 176.485 160.633 176.485 165.363C176.485 170.092 179.8 174.174 184.429 175.145C208.437 180.178 227.203 198.943 232.235 222.952C233.205 227.58 237.287 230.896 242.017 230.896C246.746 230.896 250.829 227.582 251.799 222.952C256.833 198.943 275.598 180.178 299.606 175.146C304.235 174.175 307.55 170.093 307.55 165.364C307.55 160.635 304.235 156.552 299.607 155.582Z" fill="white" fill-opacity="0.08"/>
</g>
<defs>
<clipPath id="clip0_2004_905">
<rect width="311" height="311" fill="white"/>
</clipPath>
</defs>
</svg>
